<mxfile host="app.diagrams.net" modified="2021-09-13T09:32:00.431Z" agent="5.0 (Macintosh; Intel Mac OS X 10_15_7) AppleWebKit/537.36 (KHTML, like Gecko) Chrome/92.0.4515.107 Safari/537.36" etag="g_hgyz_MK9JY9Sawo0NJ" version="14.9.4" type="github">
  <diagram id="3StnhTMp1N94SCpasSYQ" name="Page-1">
    <mxGraphModel dx="1426" dy="769" grid="1" gridSize="10" guides="1" tooltips="1" connect="1" arrows="1" fold="1" page="1" pageScale="1" pageWidth="3000" pageHeight="4000" math="0" shadow="0">
      <root>
        <mxCell id="0" />
        <mxCell id="1" parent="0" />
        <mxCell id="tqS95xH-5jcjtcO_GQdr-10" style="edgeStyle=orthogonalEdgeStyle;rounded=0;orthogonalLoop=1;jettySize=auto;html=1;" edge="1" parent="1" source="tqS95xH-5jcjtcO_GQdr-2" target="tqS95xH-5jcjtcO_GQdr-3">
          <mxGeometry relative="1" as="geometry">
            <mxPoint x="930" y="530" as="targetPoint" />
            <Array as="points">
              <mxPoint x="830" y="490" />
              <mxPoint x="585" y="490" />
            </Array>
          </mxGeometry>
        </mxCell>
        <mxCell id="tqS95xH-5jcjtcO_GQdr-12" value="更新缓存" style="edgeLabel;html=1;align=center;verticalAlign=middle;resizable=0;points=[];" vertex="1" connectable="0" parent="tqS95xH-5jcjtcO_GQdr-10">
          <mxGeometry x="0.1304" relative="1" as="geometry">
            <mxPoint as="offset" />
          </mxGeometry>
        </mxCell>
        <mxCell id="tqS95xH-5jcjtcO_GQdr-2" value="DB" style="shape=datastore;whiteSpace=wrap;html=1;" vertex="1" parent="1">
          <mxGeometry x="800" y="310" width="60" height="60" as="geometry" />
        </mxCell>
        <mxCell id="tqS95xH-5jcjtcO_GQdr-6" style="edgeStyle=orthogonalEdgeStyle;rounded=0;orthogonalLoop=1;jettySize=auto;html=1;" edge="1" parent="1" source="tqS95xH-5jcjtcO_GQdr-3" target="tqS95xH-5jcjtcO_GQdr-2">
          <mxGeometry relative="1" as="geometry" />
        </mxCell>
        <mxCell id="tqS95xH-5jcjtcO_GQdr-9" value="如果没找到，&lt;br&gt;再查数据库" style="edgeLabel;html=1;align=center;verticalAlign=middle;resizable=0;points=[];" vertex="1" connectable="0" parent="tqS95xH-5jcjtcO_GQdr-6">
          <mxGeometry y="2" relative="1" as="geometry">
            <mxPoint as="offset" />
          </mxGeometry>
        </mxCell>
        <mxCell id="tqS95xH-5jcjtcO_GQdr-11" style="edgeStyle=orthogonalEdgeStyle;rounded=0;orthogonalLoop=1;jettySize=auto;html=1;entryX=0.5;entryY=1;entryDx=0;entryDy=0;" edge="1" parent="1" source="tqS95xH-5jcjtcO_GQdr-3" target="tqS95xH-5jcjtcO_GQdr-4">
          <mxGeometry relative="1" as="geometry">
            <Array as="points">
              <mxPoint x="585" y="490" />
              <mxPoint x="340" y="490" />
            </Array>
          </mxGeometry>
        </mxCell>
        <mxCell id="tqS95xH-5jcjtcO_GQdr-13" value="返回数据" style="edgeLabel;html=1;align=center;verticalAlign=middle;resizable=0;points=[];" vertex="1" connectable="0" parent="tqS95xH-5jcjtcO_GQdr-11">
          <mxGeometry x="0.0043" relative="1" as="geometry">
            <mxPoint as="offset" />
          </mxGeometry>
        </mxCell>
        <mxCell id="tqS95xH-5jcjtcO_GQdr-3" value="Cache node" style="outlineConnect=0;fontColor=#232F3E;gradientColor=none;strokeColor=#232F3E;fillColor=#ffffff;dashed=0;verticalLabelPosition=bottom;verticalAlign=top;align=center;html=1;fontSize=12;fontStyle=0;aspect=fixed;shape=mxgraph.aws4.resourceIcon;resIcon=mxgraph.aws4.cache_node;" vertex="1" parent="1">
          <mxGeometry x="530" y="285" width="110" height="110" as="geometry" />
        </mxCell>
        <mxCell id="tqS95xH-5jcjtcO_GQdr-5" style="edgeStyle=orthogonalEdgeStyle;rounded=0;orthogonalLoop=1;jettySize=auto;html=1;exitX=1;exitY=0.5;exitDx=0;exitDy=0;" edge="1" parent="1" source="tqS95xH-5jcjtcO_GQdr-4" target="tqS95xH-5jcjtcO_GQdr-3">
          <mxGeometry relative="1" as="geometry" />
        </mxCell>
        <mxCell id="tqS95xH-5jcjtcO_GQdr-7" value="先读缓存" style="edgeLabel;html=1;align=center;verticalAlign=middle;resizable=0;points=[];" vertex="1" connectable="0" parent="tqS95xH-5jcjtcO_GQdr-5">
          <mxGeometry x="-0.08" y="3" relative="1" as="geometry">
            <mxPoint as="offset" />
          </mxGeometry>
        </mxCell>
        <mxCell id="tqS95xH-5jcjtcO_GQdr-4" value="Application" style="rounded=0;whiteSpace=wrap;html=1;" vertex="1" parent="1">
          <mxGeometry x="280" y="310" width="120" height="60" as="geometry" />
        </mxCell>
        <mxCell id="tqS95xH-5jcjtcO_GQdr-14" value="Application" style="rounded=0;whiteSpace=wrap;html=1;" vertex="1" parent="1">
          <mxGeometry x="290" y="580" width="120" height="60" as="geometry" />
        </mxCell>
        <mxCell id="tqS95xH-5jcjtcO_GQdr-16" value="DB" style="shape=datastore;whiteSpace=wrap;html=1;" vertex="1" parent="1">
          <mxGeometry x="770" y="580" width="60" height="60" as="geometry" />
        </mxCell>
        <mxCell id="tqS95xH-5jcjtcO_GQdr-19" value="Cache node" style="outlineConnect=0;fontColor=#232F3E;gradientColor=none;strokeColor=#232F3E;fillColor=#ffffff;dashed=0;verticalLabelPosition=bottom;verticalAlign=top;align=center;html=1;fontSize=12;fontStyle=0;aspect=fixed;shape=mxgraph.aws4.resourceIcon;resIcon=mxgraph.aws4.cache_node;" vertex="1" parent="1">
          <mxGeometry x="530" y="555" width="110" height="110" as="geometry" />
        </mxCell>
        <mxCell id="tqS95xH-5jcjtcO_GQdr-24" style="edgeStyle=orthogonalEdgeStyle;rounded=0;orthogonalLoop=1;jettySize=auto;html=1;entryX=0.5;entryY=0;entryDx=0;entryDy=0;" edge="1" parent="1" source="tqS95xH-5jcjtcO_GQdr-21" target="tqS95xH-5jcjtcO_GQdr-22">
          <mxGeometry relative="1" as="geometry">
            <Array as="points">
              <mxPoint x="360" y="730" />
              <mxPoint x="870" y="730" />
            </Array>
          </mxGeometry>
        </mxCell>
        <mxCell id="tqS95xH-5jcjtcO_GQdr-25" value="更新数据" style="edgeLabel;html=1;align=center;verticalAlign=middle;resizable=0;points=[];" vertex="1" connectable="0" parent="tqS95xH-5jcjtcO_GQdr-24">
          <mxGeometry x="-0.0679" y="-3" relative="1" as="geometry">
            <mxPoint as="offset" />
          </mxGeometry>
        </mxCell>
        <mxCell id="tqS95xH-5jcjtcO_GQdr-21" value="Application" style="rounded=0;whiteSpace=wrap;html=1;" vertex="1" parent="1">
          <mxGeometry x="300" y="795" width="120" height="60" as="geometry" />
        </mxCell>
        <mxCell id="tqS95xH-5jcjtcO_GQdr-26" style="edgeStyle=orthogonalEdgeStyle;rounded=0;orthogonalLoop=1;jettySize=auto;html=1;" edge="1" parent="1" source="tqS95xH-5jcjtcO_GQdr-22" target="tqS95xH-5jcjtcO_GQdr-23">
          <mxGeometry relative="1" as="geometry" />
        </mxCell>
        <mxCell id="tqS95xH-5jcjtcO_GQdr-27" value="让缓存中的数据失效" style="edgeLabel;html=1;align=center;verticalAlign=middle;resizable=0;points=[];" vertex="1" connectable="0" parent="tqS95xH-5jcjtcO_GQdr-26">
          <mxGeometry x="-0.3" y="-2" relative="1" as="geometry">
            <mxPoint as="offset" />
          </mxGeometry>
        </mxCell>
        <mxCell id="tqS95xH-5jcjtcO_GQdr-22" value="DB" style="shape=datastore;whiteSpace=wrap;html=1;" vertex="1" parent="1">
          <mxGeometry x="840" y="795" width="60" height="60" as="geometry" />
        </mxCell>
        <mxCell id="tqS95xH-5jcjtcO_GQdr-23" value="Cache node" style="outlineConnect=0;fontColor=#232F3E;gradientColor=none;strokeColor=#232F3E;fillColor=#ffffff;dashed=0;verticalLabelPosition=bottom;verticalAlign=top;align=center;html=1;fontSize=12;fontStyle=0;aspect=fixed;shape=mxgraph.aws4.resourceIcon;resIcon=mxgraph.aws4.cache_node;" vertex="1" parent="1">
          <mxGeometry x="550" y="770" width="110" height="110" as="geometry" />
        </mxCell>
      </root>
    </mxGraphModel>
  </diagram>
</mxfile>
